<svg width="32" height="32" viewBox="0 0 32 32" fill="none" xmlns="http://www.w3.org/2000/svg">
<path d="M9.74381 30.0005C9.07029 30.0005 8.50019 29.7671 8.03351 29.3004C7.56683 28.8338 7.3335 28.2637 7.3335 27.5902V4.41032C7.3335 3.73679 7.56683 3.16669 8.03351 2.70001C8.50019 2.23334 9.07029 2 9.74381 2H22.2568C22.9303 2 23.5004 2.23334 23.9671 2.70001C24.4338 3.16669 24.6671 3.73679 24.6671 4.41032V27.5902C24.6671 28.2637 24.4338 28.8338 23.9671 29.3005C23.5004 29.7672 22.9303 30.0005 22.2568 30.0005H9.74381V30.0005ZM9.3335 23.6927V27.5902C9.3335 27.6928 9.37624 27.7868 9.46171 27.8723C9.5472 27.9578 9.64123 28.0005 9.74381 28.0005H22.2568C22.3594 28.0005 22.4534 27.9578 22.5389 27.8723C22.6244 27.7868 22.6671 27.6928 22.6671 27.5902V23.6927H9.3335ZM16.0003 27.0261C16.3268 27.0261 16.605 26.9112 16.8349 26.6812C17.0648 26.4513 17.1798 26.1731 17.1798 25.8466C17.1798 25.5201 17.0648 25.2419 16.8349 25.012C16.605 24.7821 16.3268 24.6671 16.0003 24.6671C15.6738 24.6671 15.3956 24.782 15.1657 25.012C14.9358 25.2419 14.8208 25.5201 14.8208 25.8466C14.8208 26.1731 14.9358 26.4513 15.1657 26.6812C15.3956 26.9111 15.6738 27.0261 16.0003 27.0261V27.0261ZM9.3335 21.6927H22.6671V7.66671H9.3335V21.6927ZM9.3335 5.66674H22.6671V4.41032C22.6671 4.30774 22.6244 4.2137 22.5389 4.12821C22.4534 4.04274 22.3594 4.00001 22.2568 4.00001H9.74381C9.64123 4.00001 9.5472 4.04274 9.46171 4.12821C9.37624 4.2137 9.3335 4.30774 9.3335 4.41032V5.66674Z" fill="#A8C7FA"/>
</svg>
