<svg width="32" height="32" viewBox="0 0 32 32" fill="none" xmlns="http://www.w3.org/2000/svg">
<path d="M25.9203 27.3338C23.4075 27.3338 20.8831 26.7496 18.3472 25.5813C15.8113 24.4129 13.4793 22.7646 11.3511 20.6364C9.23146 18.5082 7.58745 16.1783 6.41907 13.6467C5.25069 11.1151 4.6665 8.59287 4.6665 6.08007C4.6665 5.68007 4.79984 5.3446 5.0665 5.07367C5.33317 4.80271 5.6665 4.66724 6.0665 4.66724H10.4152C10.7519 4.66724 11.0489 4.77707 11.3062 4.99674C11.5635 5.2164 11.7271 5.48777 11.7972 5.81084L12.5613 9.73387C12.6143 10.098 12.6032 10.4108 12.528 10.6723C12.4528 10.9339 12.3177 11.1535 12.1228 11.3313L9.04337 14.3287C9.5391 15.2364 10.1053 16.095 10.7421 16.9044C11.3789 17.7138 12.0682 18.4869 12.81 19.2236C13.5417 19.9553 14.3195 20.6347 15.1434 21.2621C15.9673 21.8895 16.8571 22.4732 17.8126 23.0134L20.8049 19.9954C21.0135 19.7783 21.2661 19.6262 21.5626 19.539C21.8592 19.4519 22.1673 19.4305 22.487 19.4749L26.1895 20.2288C26.5263 20.3177 26.8011 20.4894 27.0139 20.7441C27.2267 20.9988 27.3331 21.2877 27.3331 21.6108V25.9338C27.3331 26.3338 27.1976 26.6672 26.9267 26.9338C26.6557 27.2005 26.3203 27.3338 25.9203 27.3338Z" fill="#A8C7FA"/>
</svg>
