<svg width="28" height="22" viewBox="0 0 28 22" fill="none" xmlns="http://www.w3.org/2000/svg">
<path d="M3.33317 21.6671C2.59984 21.6671 1.97206 21.406 1.44984 20.8837C0.927615 20.3615 0.666504 19.7337 0.666504 19.0004V3.00041C0.666504 2.26707 0.927615 1.6393 1.44984 1.11707C1.97206 0.594851 2.59984 0.33374 3.33317 0.33374H24.6665C25.3998 0.33374 26.0276 0.594851 26.5498 1.11707C27.0721 1.6393 27.3332 2.26707 27.3332 3.00041V19.0004C27.3332 19.7337 27.0721 20.3615 26.5498 20.8837C26.0276 21.406 25.3998 21.6671 24.6665 21.6671H3.33317ZM13.9998 12.3337L24.6665 5.66707V3.00041L13.9998 9.66707L3.33317 3.00041V5.66707L13.9998 12.3337Z" fill="#A8C7FA"/>
</svg>
