<svg width="181" height="69" viewBox="0 0 181 69" fill="none" xmlns="http://www.w3.org/2000/svg">
<path d="M86.119 28.8907V42.3457C84.4323 43.5877 82.6307 44.5 80.714 45.0827C78.8127 45.65 76.7733 45.9337 74.596 45.9337C71.882 45.9337 69.421 45.512 67.213 44.6687C65.0203 43.8253 63.142 42.6523 61.578 41.1497C60.0293 39.647 58.8333 37.853 57.99 35.7677C57.1467 33.6823 56.725 31.4053 56.725 28.9367C56.725 26.4373 57.1313 24.145 57.944 22.0597C58.7567 19.9743 59.9067 18.1803 61.394 16.6777C62.8967 15.175 64.7137 14.0097 66.845 13.1817C68.9763 12.3537 71.3683 11.9397 74.021 11.9397C75.3703 11.9397 76.6277 12.047 77.793 12.2617C78.9737 12.4763 80.0623 12.7753 81.059 13.1587C82.071 13.5267 82.991 13.979 83.819 14.5157C84.647 15.0523 85.406 15.6427 86.096 16.2867L84.325 19.0927C84.049 19.5373 83.6887 19.8133 83.244 19.9207C82.7993 20.0127 82.3163 19.8977 81.795 19.5757C81.289 19.2843 80.783 18.993 80.277 18.7017C79.771 18.4103 79.2037 18.1573 78.575 17.9427C77.9617 17.728 77.264 17.5517 76.482 17.4137C75.7153 17.2757 74.826 17.2067 73.814 17.2067C72.1733 17.2067 70.686 17.4827 69.352 18.0347C68.0333 18.5867 66.9063 19.3763 65.971 20.4037C65.0357 21.431 64.315 22.6653 63.809 24.1067C63.303 25.548 63.05 27.158 63.05 28.9367C63.05 30.838 63.3183 32.54 63.855 34.0427C64.407 35.53 65.1737 36.795 66.155 37.8377C67.1517 38.865 68.3477 39.6547 69.743 40.2067C71.1383 40.7433 72.6947 41.0117 74.412 41.0117C75.6387 41.0117 76.735 40.8813 77.701 40.6207C78.667 40.36 79.61 40.0073 80.53 39.5627V33.5367H76.344C75.9453 33.5367 75.631 33.4293 75.401 33.2147C75.1863 32.9847 75.079 32.7087 75.079 32.3867V28.8907H86.119ZM103.559 35.4917C101.918 35.5683 100.538 35.714 99.4191 35.9287C98.2998 36.128 97.4028 36.3887 96.7281 36.7107C96.0534 37.0327 95.5704 37.4083 95.2791 37.8377C94.9878 38.267 94.8421 38.7347 94.8421 39.2407C94.8421 40.2373 95.1334 40.9503 95.7161 41.3797C96.3141 41.809 97.0884 42.0237 98.0391 42.0237C99.2044 42.0237 100.209 41.8167 101.052 41.4027C101.911 40.9733 102.746 40.3293 103.559 39.4707V35.4917ZM90.5411 25.2567C93.2551 22.7727 96.5211 21.5307 100.339 21.5307C101.719 21.5307 102.953 21.7607 104.042 22.2207C105.131 22.6653 106.051 23.294 106.802 24.1067C107.553 24.904 108.121 25.8623 108.504 26.9817C108.903 28.101 109.102 29.3277 109.102 30.6617V45.5657H106.526C105.989 45.5657 105.575 45.489 105.284 45.3357C104.993 45.167 104.763 44.8373 104.594 44.3467L104.088 42.6447C103.49 43.1813 102.907 43.6567 102.34 44.0707C101.773 44.4693 101.182 44.8067 100.569 45.0827C99.9558 45.3587 99.2964 45.5657 98.5911 45.7037C97.9011 45.857 97.1344 45.9337 96.2911 45.9337C95.2944 45.9337 94.3744 45.8033 93.5311 45.5427C92.6878 45.2667 91.9594 44.8603 91.3461 44.3237C90.7328 43.787 90.2574 43.12 89.9201 42.3227C89.5828 41.5253 89.4141 40.5977 89.4141 39.5397C89.4141 38.9417 89.5138 38.3513 89.7131 37.7687C89.9124 37.1707 90.2344 36.6033 90.6791 36.0667C91.1391 35.53 91.7294 35.024 92.4501 34.5487C93.1708 34.0733 94.0524 33.6593 95.0951 33.3067C96.1531 32.954 97.3798 32.6703 98.7751 32.4557C100.17 32.2257 101.765 32.0877 103.559 32.0417V30.6617C103.559 29.0823 103.222 27.917 102.547 27.1657C101.872 26.399 100.899 26.0157 99.6261 26.0157C98.7061 26.0157 97.9394 26.123 97.3261 26.3377C96.7281 26.5523 96.1991 26.7977 95.7391 27.0737C95.2791 27.3343 94.8574 27.572 94.4741 27.7867C94.1061 28.0013 93.6921 28.1087 93.2321 28.1087C92.8334 28.1087 92.4961 28.009 92.2201 27.8097C91.9441 27.595 91.7218 27.3497 91.5531 27.0737L90.5411 25.2567ZM120.202 11.3877V45.5657H114.521V11.3877H120.202ZM140.261 26.5677C140.107 26.813 139.946 26.9893 139.778 27.0967C139.609 27.1887 139.394 27.2347 139.134 27.2347C138.858 27.2347 138.559 27.158 138.237 27.0047C137.93 26.8513 137.57 26.6827 137.156 26.4987C136.742 26.2993 136.266 26.123 135.73 25.9697C135.208 25.8163 134.587 25.7397 133.867 25.7397C132.747 25.7397 131.866 25.9773 131.222 26.4527C130.593 26.928 130.279 27.549 130.279 28.3157C130.279 28.8217 130.44 29.251 130.762 29.6037C131.099 29.941 131.536 30.24 132.073 30.5007C132.625 30.7613 133.246 30.999 133.936 31.2137C134.626 31.413 135.323 31.6353 136.029 31.8807C136.749 32.126 137.455 32.4097 138.145 32.7317C138.835 33.0383 139.448 33.437 139.985 33.9277C140.537 34.403 140.974 34.978 141.296 35.6527C141.633 36.3273 141.802 37.14 141.802 38.0907C141.802 39.2253 141.595 40.2757 141.181 41.2417C140.782 42.1923 140.184 43.0203 139.387 43.7257C138.589 44.4157 137.6 44.96 136.42 45.3587C135.254 45.742 133.905 45.9337 132.372 45.9337C131.559 45.9337 130.762 45.857 129.98 45.7037C129.213 45.5657 128.469 45.3663 127.749 45.1057C127.043 44.845 126.384 44.5383 125.771 44.1857C125.173 43.833 124.644 43.4497 124.184 43.0357L125.495 40.8737C125.663 40.613 125.863 40.4137 126.093 40.2757C126.323 40.1377 126.614 40.0687 126.967 40.0687C127.319 40.0687 127.649 40.1683 127.956 40.3677C128.278 40.567 128.646 40.7817 129.06 41.0117C129.474 41.2417 129.957 41.4563 130.509 41.6557C131.076 41.855 131.789 41.9547 132.648 41.9547C133.322 41.9547 133.897 41.878 134.373 41.7247C134.863 41.556 135.262 41.3413 135.569 41.0807C135.891 40.82 136.121 40.521 136.259 40.1837C136.412 39.831 136.489 39.4707 136.489 39.1027C136.489 38.5507 136.32 38.0983 135.983 37.7457C135.661 37.393 135.224 37.0863 134.672 36.8257C134.135 36.565 133.514 36.335 132.809 36.1357C132.119 35.921 131.406 35.691 130.67 35.4457C129.949 35.2003 129.236 34.9167 128.531 34.5947C127.841 34.2573 127.22 33.8357 126.668 33.3297C126.131 32.8237 125.694 32.2027 125.357 31.4667C125.035 30.7307 124.874 29.8413 124.874 28.7987C124.874 27.8327 125.065 26.9127 125.449 26.0387C125.832 25.1647 126.392 24.4057 127.128 23.7617C127.879 23.1023 128.807 22.581 129.911 22.1977C131.03 21.799 132.318 21.5997 133.775 21.5997C135.4 21.5997 136.88 21.868 138.214 22.4047C139.548 22.9413 140.659 23.6467 141.549 24.5207L140.261 26.5677ZM151.965 21.9677V45.5657H146.261V21.9677H151.965ZM152.747 15.0907C152.747 15.5813 152.648 16.0413 152.448 16.4707C152.249 16.9 151.981 17.2757 151.643 17.5977C151.321 17.9197 150.938 18.1803 150.493 18.3797C150.049 18.5637 149.573 18.6557 149.067 18.6557C148.577 18.6557 148.109 18.5637 147.664 18.3797C147.235 18.1803 146.859 17.9197 146.537 17.5977C146.215 17.2757 145.955 16.9 145.755 16.4707C145.571 16.0413 145.479 15.5813 145.479 15.0907C145.479 14.5847 145.571 14.1093 145.755 13.6647C145.955 13.22 146.215 12.8367 146.537 12.5147C146.859 12.1927 147.235 11.9397 147.664 11.7557C148.109 11.5563 148.577 11.4567 149.067 11.4567C149.573 11.4567 150.049 11.5563 150.493 11.7557C150.938 11.9397 151.321 12.1927 151.643 12.5147C151.981 12.8367 152.249 13.22 152.448 13.6647C152.648 14.1093 152.747 14.5847 152.747 15.0907ZM172.96 31.0527C172.96 30.3167 172.853 29.6267 172.638 28.9827C172.439 28.3233 172.132 27.7483 171.718 27.2577C171.304 26.767 170.775 26.3837 170.131 26.1077C169.503 25.8163 168.767 25.6707 167.923 25.6707C166.283 25.6707 164.987 26.1383 164.036 27.0737C163.101 28.009 162.503 29.3353 162.242 31.0527H172.96ZM162.127 34.4797C162.219 35.691 162.434 36.7413 162.771 37.6307C163.109 38.5047 163.553 39.233 164.105 39.8157C164.657 40.383 165.309 40.8123 166.06 41.1037C166.827 41.3797 167.67 41.5177 168.59 41.5177C169.51 41.5177 170.3 41.4103 170.959 41.1957C171.634 40.981 172.217 40.7433 172.707 40.4827C173.213 40.222 173.65 39.9843 174.018 39.7697C174.402 39.555 174.77 39.4477 175.122 39.4477C175.598 39.4477 175.95 39.624 176.18 39.9767L177.813 42.0467C177.185 42.7827 176.479 43.4037 175.697 43.9097C174.915 44.4003 174.095 44.799 173.236 45.1057C172.393 45.397 171.527 45.604 170.637 45.7267C169.763 45.8493 168.912 45.9107 168.084 45.9107C166.444 45.9107 164.918 45.6423 163.507 45.1057C162.097 44.5537 160.87 43.7487 159.827 42.6907C158.785 41.6173 157.964 40.2987 157.366 38.7347C156.768 37.1553 156.469 35.3307 156.469 33.2607C156.469 31.6507 156.73 30.1403 157.251 28.7297C157.773 27.3037 158.516 26.0693 159.482 25.0267C160.464 23.9687 161.652 23.133 163.047 22.5197C164.458 21.9063 166.045 21.5997 167.808 21.5997C169.296 21.5997 170.668 21.8373 171.925 22.3127C173.183 22.788 174.264 23.4857 175.168 24.4057C176.073 25.3103 176.778 26.4297 177.284 27.7637C177.806 29.0823 178.066 30.5927 178.066 32.2947C178.066 33.1533 177.974 33.736 177.79 34.0427C177.606 34.334 177.254 34.4797 176.732 34.4797H162.127Z" fill="white"/>
<path d="M8.12 57.054L3.6 67.55C3.552 67.6566 3.49067 67.742 3.416 67.806C3.34667 67.87 3.23733 67.902 3.088 67.902H2.032L3.512 64.686L0.168 57.054H1.4C1.52267 57.054 1.61867 57.086 1.688 57.15C1.76267 57.2086 1.81333 57.2753 1.84 57.35L4.008 62.454C4.09333 62.678 4.16533 62.9126 4.224 63.158C4.29867 62.9073 4.37867 62.67 4.464 62.446L6.568 57.35C6.6 57.2646 6.65333 57.1953 6.728 57.142C6.808 57.0833 6.896 57.054 6.992 57.054H8.12ZM14.394 56.926C14.986 56.926 15.5193 57.0246 15.994 57.222C16.4687 57.4193 16.874 57.6993 17.21 58.062C17.546 58.4246 17.802 58.8646 17.978 59.382C18.1593 59.894 18.25 60.4673 18.25 61.102C18.25 61.742 18.1593 62.318 17.978 62.83C17.802 63.342 17.546 63.7793 17.21 64.142C16.874 64.5046 16.4687 64.7846 15.994 64.982C15.5193 65.174 14.986 65.27 14.394 65.27C13.7967 65.27 13.258 65.174 12.778 64.982C12.3033 64.7846 11.898 64.5046 11.562 64.142C11.226 63.7793 10.9673 63.342 10.786 62.83C10.61 62.318 10.522 61.742 10.522 61.102C10.522 60.4673 10.61 59.894 10.786 59.382C10.9673 58.8646 11.226 58.4246 11.562 58.062C11.898 57.6993 12.3033 57.4193 12.778 57.222C13.258 57.0246 13.7967 56.926 14.394 56.926ZM14.394 64.158C15.194 64.158 15.7913 63.8913 16.186 63.358C16.5807 62.8193 16.778 62.07 16.778 61.11C16.778 60.1446 16.5807 59.3926 16.186 58.854C15.7913 58.3153 15.194 58.046 14.394 58.046C13.9887 58.046 13.634 58.1153 13.33 58.254C13.0313 58.3926 12.7807 58.5926 12.578 58.854C12.3807 59.1153 12.2313 59.438 12.13 59.822C12.034 60.2006 11.986 60.63 11.986 61.11C11.986 62.07 12.1833 62.8193 12.578 63.358C12.978 63.8913 13.5833 64.158 14.394 64.158ZM28.3201 57.054V65.158H27.4721C27.2695 65.158 27.1415 65.0593 27.0881 64.862L26.9761 63.99C26.6241 64.3793 26.2295 64.694 25.7921 64.934C25.3548 65.1686 24.8535 65.286 24.2881 65.286C23.8455 65.286 23.4535 65.214 23.1121 65.07C22.7761 64.9206 22.4935 64.7126 22.2641 64.446C22.0348 64.1793 21.8615 63.8566 21.7441 63.478C21.6321 63.0993 21.5761 62.6806 21.5761 62.222V57.054H23.0001V62.222C23.0001 62.8353 23.1388 63.31 23.4161 63.646C23.6988 63.982 24.1281 64.15 24.7041 64.15C25.1255 64.15 25.5175 64.0513 25.8801 63.854C26.2481 63.6513 26.5868 63.374 26.8961 63.022V57.054H28.3201ZM33.53 58.678C33.786 58.1233 34.1007 57.6913 34.474 57.382C34.8473 57.0673 35.3033 56.91 35.842 56.91C36.0127 56.91 36.1753 56.9286 36.33 56.966C36.49 57.0033 36.6313 57.062 36.754 57.142L36.65 58.206C36.618 58.3393 36.538 58.406 36.41 58.406C36.3353 58.406 36.226 58.39 36.082 58.358C35.938 58.326 35.7753 58.31 35.594 58.31C35.338 58.31 35.1087 58.3473 34.906 58.422C34.7087 58.4966 34.53 58.6086 34.37 58.758C34.2153 58.902 34.074 59.0833 33.946 59.302C33.8233 59.5153 33.7113 59.7606 33.61 60.038V65.158H32.178V57.054H32.994C33.1487 57.054 33.2553 57.0833 33.314 57.142C33.3727 57.2006 33.4127 57.302 33.434 57.446L33.53 58.678ZM46.4601 57.054V65.158H45.0361V57.054H46.4601ZM46.7641 54.51C46.7641 54.6486 46.7348 54.7793 46.6761 54.902C46.6228 55.0193 46.5481 55.126 46.4521 55.222C46.3615 55.3126 46.2521 55.3846 46.1241 55.438C46.0015 55.4913 45.8708 55.518 45.7321 55.518C45.5935 55.518 45.4628 55.4913 45.3401 55.438C45.2228 55.3846 45.1188 55.3126 45.0281 55.222C44.9375 55.126 44.8655 55.0193 44.8121 54.902C44.7588 54.7793 44.7321 54.6486 44.7321 54.51C44.7321 54.3713 44.7588 54.2406 44.8121 54.118C44.8655 53.99 44.9375 53.8806 45.0281 53.79C45.1188 53.694 45.2228 53.6193 45.3401 53.566C45.4628 53.5126 45.5935 53.486 45.7321 53.486C45.8708 53.486 46.0015 53.5126 46.1241 53.566C46.2521 53.6193 46.3615 53.694 46.4521 53.79C46.5481 53.8806 46.6228 53.99 46.6761 54.118C46.7348 54.2406 46.7641 54.3713 46.7641 54.51ZM51.7439 58.23C51.9199 58.0326 52.1065 57.854 52.3039 57.694C52.5012 57.534 52.7092 57.398 52.9279 57.286C53.1519 57.1686 53.3865 57.0806 53.6319 57.022C53.8825 56.958 54.1519 56.926 54.4399 56.926C54.8825 56.926 55.2719 57.0006 55.6079 57.15C55.9492 57.294 56.2319 57.502 56.4559 57.774C56.6852 58.0406 56.8585 58.3633 56.9759 58.742C57.0932 59.1206 57.1519 59.5393 57.1519 59.998V65.158H55.7199V59.998C55.7199 59.3846 55.5785 58.91 55.2959 58.574C55.0185 58.2326 54.5945 58.062 54.0239 58.062C53.6025 58.062 53.2079 58.1633 52.8399 58.366C52.4772 58.5686 52.1412 58.8433 51.8319 59.19V65.158H50.3999V57.054H51.2559C51.4585 57.054 51.5839 57.1526 51.6319 57.35L51.7439 58.23ZM63.3004 65.286C62.6604 65.286 62.167 65.1073 61.8204 64.75C61.479 64.3926 61.3084 63.878 61.3084 63.206V58.246H60.3324C60.247 58.246 60.175 58.222 60.1164 58.174C60.0577 58.1206 60.0284 58.0406 60.0284 57.934V57.366L61.3564 57.198L61.6844 54.694C61.7004 54.614 61.735 54.55 61.7884 54.502C61.847 54.4486 61.9217 54.422 62.0124 54.422H62.7324V57.214H65.0764V58.246H62.7324V63.11C62.7324 63.4513 62.815 63.7046 62.9804 63.87C63.1457 64.0353 63.359 64.118 63.6204 64.118C63.7697 64.118 63.8977 64.0993 64.0044 64.062C64.1164 64.0193 64.2124 63.974 64.2924 63.926C64.3724 63.878 64.439 63.8353 64.4924 63.798C64.551 63.7553 64.6017 63.734 64.6444 63.734C64.719 63.734 64.7857 63.7793 64.8444 63.87L65.2604 64.55C65.015 64.7793 64.719 64.9606 64.3724 65.094C64.0257 65.222 63.6684 65.286 63.3004 65.286ZM73.5239 60.222C73.5239 59.8913 73.4759 59.59 73.3799 59.318C73.2892 59.0406 73.1532 58.8033 72.9719 58.606C72.7959 58.4033 72.5799 58.2486 72.3239 58.142C72.0679 58.03 71.7772 57.974 71.4519 57.974C70.7692 57.974 70.2279 58.174 69.8279 58.574C69.4332 58.9686 69.1879 59.518 69.0919 60.222H73.5239ZM74.6759 64.022C74.4999 64.2353 74.2892 64.422 74.0439 64.582C73.7985 64.7366 73.5345 64.8646 73.2519 64.966C72.9745 65.0673 72.6865 65.142 72.3879 65.19C72.0892 65.2433 71.7932 65.27 71.4999 65.27C70.9399 65.27 70.4225 65.1766 69.9479 64.99C69.4785 64.798 69.0705 64.5206 68.7239 64.158C68.3825 63.79 68.1159 63.3366 67.9239 62.798C67.7319 62.2593 67.6359 61.6406 67.6359 60.942C67.6359 60.3766 67.7212 59.8486 67.8919 59.358C68.0679 58.8673 68.3185 58.4433 68.6439 58.086C68.9692 57.7233 69.3665 57.4406 69.8359 57.238C70.3052 57.03 70.8332 56.926 71.4199 56.926C71.9052 56.926 72.3532 57.0086 72.7639 57.174C73.1799 57.334 73.5372 57.5686 73.8359 57.878C74.1399 58.182 74.3772 58.5606 74.5479 59.014C74.7185 59.462 74.8039 59.974 74.8039 60.55C74.8039 60.774 74.7799 60.9233 74.7319 60.998C74.6839 61.0726 74.5932 61.11 74.4599 61.11H69.0439C69.0599 61.622 69.1292 62.0673 69.2519 62.446C69.3799 62.8246 69.5559 63.142 69.7799 63.398C70.0039 63.6486 70.2705 63.838 70.5799 63.966C70.8892 64.0886 71.2359 64.15 71.6199 64.15C71.9772 64.15 72.2839 64.11 72.5399 64.03C72.8012 63.9446 73.0252 63.854 73.2119 63.758C73.3985 63.662 73.5532 63.574 73.6759 63.494C73.8039 63.4086 73.9132 63.366 74.0039 63.366C74.1212 63.366 74.2119 63.4113 74.2759 63.502L74.6759 64.022ZM79.625 53.374V65.158H78.201V53.374H79.625ZM85.0063 53.374V65.158H83.5822V53.374H85.0063ZM90.4195 57.054V65.158H88.9955V57.054H90.4195ZM90.7235 54.51C90.7235 54.6486 90.6942 54.7793 90.6355 54.902C90.5822 55.0193 90.5075 55.126 90.4115 55.222C90.3208 55.3126 90.2115 55.3846 90.0835 55.438C89.9608 55.4913 89.8302 55.518 89.6915 55.518C89.5528 55.518 89.4222 55.4913 89.2995 55.438C89.1822 55.3846 89.0782 55.3126 88.9875 55.222C88.8968 55.126 88.8248 55.0193 88.7715 54.902C88.7182 54.7793 88.6915 54.6486 88.6915 54.51C88.6915 54.3713 88.7182 54.2406 88.7715 54.118C88.8248 53.99 88.8968 53.8806 88.9875 53.79C89.0782 53.694 89.1822 53.6193 89.2995 53.566C89.4222 53.5126 89.5528 53.486 89.6915 53.486C89.8302 53.486 89.9608 53.5126 90.0835 53.566C90.2115 53.6193 90.3208 53.694 90.4115 53.79C90.5075 53.8806 90.5822 53.99 90.6355 54.118C90.6942 54.2406 90.7235 54.3713 90.7235 54.51ZM97.1832 61.198C97.4712 61.198 97.7246 61.158 97.9432 61.078C98.1619 60.998 98.3459 60.886 98.4952 60.742C98.6446 60.598 98.7566 60.4273 98.8312 60.23C98.9059 60.0273 98.9432 59.806 98.9432 59.566C98.9432 59.07 98.7912 58.6753 98.4872 58.382C98.1886 58.0886 97.7539 57.942 97.1832 57.942C96.6072 57.942 96.1672 58.0886 95.8632 58.382C95.5646 58.6753 95.4152 59.07 95.4152 59.566C95.4152 59.806 95.4526 60.0273 95.5272 60.23C95.6072 60.4273 95.7219 60.598 95.8712 60.742C96.0206 60.886 96.2046 60.998 96.4232 61.078C96.6419 61.158 96.8952 61.198 97.1832 61.198ZM99.7512 65.598C99.7512 65.4006 99.6952 65.2406 99.5832 65.118C99.4712 64.9953 99.3192 64.8993 99.1272 64.83C98.9406 64.7606 98.7219 64.7126 98.4712 64.686C98.2206 64.654 97.9539 64.63 97.6712 64.614C97.3939 64.598 97.1112 64.582 96.8232 64.566C96.5352 64.55 96.2579 64.5233 95.9912 64.486C95.6926 64.6246 95.4472 64.8006 95.2552 65.014C95.0686 65.222 94.9752 65.4673 94.9752 65.75C94.9752 65.9313 95.0206 66.0993 95.1112 66.254C95.2072 66.414 95.3512 66.55 95.5432 66.662C95.7352 66.7793 95.9752 66.87 96.2632 66.934C96.5566 67.0033 96.9006 67.038 97.2952 67.038C97.6792 67.038 98.0232 67.0033 98.3272 66.934C98.6312 66.8646 98.8872 66.766 99.0952 66.638C99.3086 66.51 99.4712 66.358 99.5832 66.182C99.6952 66.006 99.7512 65.8113 99.7512 65.598ZM101.199 57.374V57.902C101.199 58.078 101.087 58.19 100.863 58.238L99.9432 58.358C100.125 58.71 100.215 59.0993 100.215 59.526C100.215 59.9206 100.138 60.2806 99.9832 60.606C99.8339 60.926 99.6259 61.2006 99.3592 61.43C99.0926 61.6593 98.7726 61.8353 98.3992 61.958C98.0259 62.0806 97.6206 62.142 97.1832 62.142C96.8046 62.142 96.4472 62.0966 96.1112 62.006C95.9406 62.1126 95.8099 62.2273 95.7192 62.35C95.6286 62.4673 95.5832 62.5873 95.5832 62.71C95.5832 62.902 95.6606 63.0486 95.8152 63.15C95.9752 63.246 96.1832 63.3153 96.4392 63.358C96.6952 63.4006 96.9859 63.4273 97.3112 63.438C97.6419 63.4486 97.9779 63.4673 98.3192 63.494C98.6659 63.5153 99.0019 63.5553 99.3272 63.614C99.6579 63.6726 99.9512 63.7686 100.207 63.902C100.463 64.0353 100.669 64.2193 100.823 64.454C100.983 64.6886 101.063 64.9926 101.063 65.366C101.063 65.7126 100.975 66.0486 100.799 66.374C100.629 66.6993 100.381 66.9873 100.055 67.238C99.7299 67.494 99.3299 67.6966 98.8552 67.846C98.3859 68.0006 97.8552 68.078 97.2632 68.078C96.6712 68.078 96.1539 68.0193 95.7112 67.902C95.2686 67.7846 94.9006 67.6273 94.6072 67.43C94.3139 67.2326 94.0926 67.0033 93.9432 66.742C93.7992 66.486 93.7272 66.2166 93.7272 65.934C93.7272 65.534 93.8526 65.1953 94.1032 64.918C94.3539 64.6406 94.6979 64.4193 95.1352 64.254C94.8952 64.1473 94.7032 64.006 94.5592 63.83C94.4206 63.6486 94.3512 63.406 94.3512 63.102C94.3512 62.9846 94.3726 62.8646 94.4152 62.742C94.4579 62.614 94.5219 62.4886 94.6072 62.366C94.6979 62.238 94.8072 62.118 94.9352 62.006C95.0632 61.894 95.2126 61.7953 95.3832 61.71C94.9832 61.486 94.6712 61.19 94.4472 60.822C94.2232 60.4486 94.1112 60.0166 94.1112 59.526C94.1112 59.1313 94.1859 58.774 94.3352 58.454C94.4899 58.1286 94.7032 57.854 94.9752 57.63C95.2472 57.4006 95.5699 57.2246 95.9432 57.102C96.3219 56.9793 96.7352 56.918 97.1832 56.918C97.5352 56.918 97.8632 56.958 98.1672 57.038C98.4712 57.1126 98.7486 57.2246 98.9992 57.374H101.199ZM109.571 60.222C109.571 59.8913 109.523 59.59 109.427 59.318C109.336 59.0406 109.2 58.8033 109.019 58.606C108.843 58.4033 108.627 58.2486 108.371 58.142C108.115 58.03 107.824 57.974 107.499 57.974C106.816 57.974 106.275 58.174 105.875 58.574C105.48 58.9686 105.235 59.518 105.139 60.222H109.571ZM110.723 64.022C110.547 64.2353 110.336 64.422 110.091 64.582C109.845 64.7366 109.581 64.8646 109.299 64.966C109.021 65.0673 108.733 65.142 108.435 65.19C108.136 65.2433 107.84 65.27 107.547 65.27C106.987 65.27 106.469 65.1766 105.995 64.99C105.525 64.798 105.117 64.5206 104.771 64.158C104.429 63.79 104.163 63.3366 103.971 62.798C103.779 62.2593 103.683 61.6406 103.683 60.942C103.683 60.3766 103.768 59.8486 103.939 59.358C104.115 58.8673 104.365 58.4433 104.691 58.086C105.016 57.7233 105.413 57.4406 105.883 57.238C106.352 57.03 106.88 56.926 107.467 56.926C107.952 56.926 108.4 57.0086 108.811 57.174C109.227 57.334 109.584 57.5686 109.883 57.878C110.187 58.182 110.424 58.5606 110.595 59.014C110.765 59.462 110.851 59.974 110.851 60.55C110.851 60.774 110.827 60.9233 110.779 60.998C110.731 61.0726 110.64 61.11 110.507 61.11H105.091C105.107 61.622 105.176 62.0673 105.299 62.446C105.427 62.8246 105.603 63.142 105.827 63.398C106.051 63.6486 106.317 63.838 106.627 63.966C106.936 64.0886 107.283 64.15 107.667 64.15C108.024 64.15 108.331 64.11 108.587 64.03C108.848 63.9446 109.072 63.854 109.259 63.758C109.445 63.662 109.6 63.574 109.723 63.494C109.851 63.4086 109.96 63.366 110.051 63.366C110.168 63.366 110.259 63.4113 110.323 63.502L110.723 64.022ZM115.544 58.23C115.72 58.0326 115.907 57.854 116.104 57.694C116.301 57.534 116.509 57.398 116.728 57.286C116.952 57.1686 117.187 57.0806 117.432 57.022C117.683 56.958 117.952 56.926 118.24 56.926C118.683 56.926 119.072 57.0006 119.408 57.15C119.749 57.294 120.032 57.502 120.256 57.774C120.485 58.0406 120.659 58.3633 120.776 58.742C120.893 59.1206 120.952 59.5393 120.952 59.998V65.158H119.52V59.998C119.52 59.3846 119.379 58.91 119.096 58.574C118.819 58.2326 118.395 58.062 117.824 58.062C117.403 58.062 117.008 58.1633 116.64 58.366C116.277 58.5686 115.941 58.8433 115.632 59.19V65.158H114.2V57.054H115.056C115.259 57.054 115.384 57.1526 115.432 57.35L115.544 58.23ZM127.1 65.286C126.46 65.286 125.967 65.1073 125.62 64.75C125.279 64.3926 125.108 63.878 125.108 63.206V58.246H124.132C124.047 58.246 123.975 58.222 123.916 58.174C123.858 58.1206 123.828 58.0406 123.828 57.934V57.366L125.156 57.198L125.484 54.694C125.5 54.614 125.535 54.55 125.588 54.502C125.647 54.4486 125.722 54.422 125.812 54.422H126.532V57.214H128.876V58.246H126.532V63.11C126.532 63.4513 126.615 63.7046 126.78 63.87C126.946 64.0353 127.159 64.118 127.42 64.118C127.57 64.118 127.698 64.0993 127.804 64.062C127.916 64.0193 128.012 63.974 128.092 63.926C128.172 63.878 128.239 63.8353 128.292 63.798C128.351 63.7553 128.402 63.734 128.444 63.734C128.519 63.734 128.586 63.7793 128.644 63.87L129.06 64.55C128.815 64.7793 128.519 64.9606 128.172 65.094C127.826 65.222 127.468 65.286 127.1 65.286ZM139.072 58.134C139.419 57.766 139.803 57.4726 140.224 57.254C140.646 57.0353 141.131 56.926 141.68 56.926C142.123 56.926 142.512 57.0006 142.848 57.15C143.19 57.294 143.472 57.502 143.696 57.774C143.926 58.0406 144.099 58.3633 144.216 58.742C144.334 59.1206 144.392 59.5393 144.392 59.998V65.158H142.96V59.998C142.96 59.3846 142.819 58.91 142.536 58.574C142.259 58.2326 141.835 58.062 141.264 58.062C140.843 58.062 140.448 58.1633 140.08 58.366C139.718 58.5686 139.382 58.8433 139.072 59.19V65.158H137.64V53.374H139.072V58.134ZM151.578 56.926C152.17 56.926 152.704 57.0246 153.178 57.222C153.653 57.4193 154.058 57.6993 154.394 58.062C154.73 58.4246 154.986 58.8646 155.162 59.382C155.344 59.894 155.434 60.4673 155.434 61.102C155.434 61.742 155.344 62.318 155.162 62.83C154.986 63.342 154.73 63.7793 154.394 64.142C154.058 64.5046 153.653 64.7846 153.178 64.982C152.704 65.174 152.17 65.27 151.578 65.27C150.981 65.27 150.442 65.174 149.962 64.982C149.488 64.7846 149.082 64.5046 148.746 64.142C148.41 63.7793 148.152 63.342 147.97 62.83C147.794 62.318 147.706 61.742 147.706 61.102C147.706 60.4673 147.794 59.894 147.97 59.382C148.152 58.8646 148.41 58.4246 148.746 58.062C149.082 57.6993 149.488 57.4193 149.962 57.222C150.442 57.0246 150.981 56.926 151.578 56.926ZM151.578 64.158C152.378 64.158 152.976 63.8913 153.37 63.358C153.765 62.8193 153.962 62.07 153.962 61.11C153.962 60.1446 153.765 59.3926 153.37 58.854C152.976 58.3153 152.378 58.046 151.578 58.046C151.173 58.046 150.818 58.1153 150.514 58.254C150.216 58.3926 149.965 58.5926 149.762 58.854C149.565 59.1153 149.416 59.438 149.314 59.822C149.218 60.2006 149.17 60.63 149.17 61.11C149.17 62.07 149.368 62.8193 149.762 63.358C150.162 63.8913 150.768 64.158 151.578 64.158ZM158.84 65.158V57.054H159.696C159.899 57.054 160.024 57.1526 160.072 57.35L160.176 58.182C160.475 57.814 160.811 57.5126 161.184 57.278C161.558 57.0433 161.99 56.926 162.48 56.926C163.024 56.926 163.464 57.078 163.8 57.382C164.142 57.686 164.387 58.0966 164.536 58.614C164.654 58.3206 164.803 58.0673 164.984 57.854C165.171 57.6406 165.379 57.4646 165.608 57.326C165.838 57.1873 166.08 57.086 166.336 57.022C166.598 56.958 166.862 56.926 167.128 56.926C167.555 56.926 167.934 56.9953 168.264 57.134C168.6 57.2673 168.883 57.4646 169.112 57.726C169.347 57.9873 169.526 58.31 169.648 58.694C169.771 59.0726 169.832 59.5073 169.832 59.998V65.158H168.4V59.998C168.4 59.3633 168.262 58.8833 167.984 58.558C167.707 58.2273 167.307 58.062 166.784 58.062C166.55 58.062 166.326 58.1046 166.112 58.19C165.904 58.27 165.72 58.39 165.56 58.55C165.4 58.71 165.272 58.9126 165.176 59.158C165.086 59.398 165.04 59.678 165.04 59.998V65.158H163.608V59.998C163.608 59.3473 163.478 58.862 163.216 58.542C162.955 58.222 162.574 58.062 162.072 58.062C161.72 58.062 161.395 58.158 161.096 58.35C160.798 58.5366 160.523 58.7926 160.272 59.118V65.158H158.84ZM179.021 60.222C179.021 59.8913 178.973 59.59 178.877 59.318C178.786 59.0406 178.65 58.8033 178.469 58.606C178.293 58.4033 178.077 58.2486 177.821 58.142C177.565 58.03 177.274 57.974 176.949 57.974C176.266 57.974 175.725 58.174 175.325 58.574C174.93 58.9686 174.685 59.518 174.589 60.222H179.021ZM180.173 64.022C179.997 64.2353 179.786 64.422 179.541 64.582C179.295 64.7366 179.031 64.8646 178.749 64.966C178.471 65.0673 178.183 65.142 177.885 65.19C177.586 65.2433 177.29 65.27 176.997 65.27C176.437 65.27 175.919 65.1766 175.445 64.99C174.975 64.798 174.567 64.5206 174.221 64.158C173.879 63.79 173.613 63.3366 173.421 62.798C173.229 62.2593 173.133 61.6406 173.133 60.942C173.133 60.3766 173.218 59.8486 173.389 59.358C173.565 58.8673 173.815 58.4433 174.141 58.086C174.466 57.7233 174.863 57.4406 175.333 57.238C175.802 57.03 176.33 56.926 176.917 56.926C177.402 56.926 177.85 57.0086 178.261 57.174C178.677 57.334 179.034 57.5686 179.333 57.878C179.637 58.182 179.874 58.5606 180.045 59.014C180.215 59.462 180.301 59.974 180.301 60.55C180.301 60.774 180.277 60.9233 180.229 60.998C180.181 61.0726 180.09 61.11 179.957 61.11H174.541C174.557 61.622 174.626 62.0673 174.749 62.446C174.877 62.8246 175.053 63.142 175.277 63.398C175.501 63.6486 175.767 63.838 176.077 63.966C176.386 64.0886 176.733 64.15 177.117 64.15C177.474 64.15 177.781 64.11 178.037 64.03C178.298 63.9446 178.522 63.854 178.709 63.758C178.895 63.662 179.05 63.574 179.173 63.494C179.301 63.4086 179.41 63.366 179.501 63.366C179.618 63.366 179.709 63.4113 179.773 63.502L180.173 64.022Z" fill="white"/>
<path d="M43.5548 17.6579L38.0252 12.478L36.6369 11.1817L35.2906 9.84544C34.3886 8.95999 33.4752 8.09352 32.5416 7.24794C30.6745 5.54632 28.7241 3.93013 26.8215 2.2437C26.3361 1.82802 25.8822 1.38293 25.3977 1.03273C24.9152 0.674948 24.377 0.394035 23.8035 0.202331C23.2357 0.0220147 22.6344 -0.0387238 22.0398 0.0239123C21.4452 0.0865483 20.8716 0.272559 20.3575 0.567708C19.8203 0.856214 19.3281 1.21874 18.8973 1.64391L17.4945 2.9251L14.8432 5.35272L13.2959 6.76393C13.5496 6.76393 15.9376 6.70889 19.2592 8.33553C20.1267 8.75785 20.9415 9.27507 21.6893 9.87675C22.3079 10.3769 22.8393 10.8381 23.1802 11.1532L24.7275 12.5094L29.4786 16.7183L31.8465 18.8157C32.6259 19.5265 33.4455 20.1918 34.1828 20.9624C34.56 21.3486 34.8703 21.7918 35.101 22.2739C35.3155 22.7655 35.4342 23.2923 35.4515 23.8256V26.9432V33.1641L35.4831 43.0084C35.4869 43.7012 35.7722 44.3626 36.2778 44.8514C36.7833 45.3401 37.467 45.6154 38.1803 45.6163H42.5494C43.7721 45.6163 44.9843 44.5249 44.9996 43.4392V20.8162C44.8972 19.6356 44.3888 18.5234 43.5548 17.6579Z" fill="white"/>
<path d="M27.5976 29.4016C27.5976 29.2688 27.5976 28.2827 27.5976 28.1461C27.679 27.1325 27.4712 26.118 26.9972 25.2022C25.943 23.4607 23.9237 22.8771 21.9263 22.5971C21.4514 22.5383 20.9774 22.5088 20.5025 22.4937C19.8332 22.4937 18.0781 22.5677 18.0781 24.3576V28.0616C23.2869 27.8946 27.1294 31.0938 27.5928 31.3785C27.5928 30.6031 27.5928 29.7253 27.587 29.377L27.5976 29.4016Z" fill="#0F7AC0"/>
<path d="M10.0846 9.58652L2.07034 16.7394C1.64713 17.1 1.26508 17.5033 0.930915 17.9437C0.266411 18.8576 -0.059139 19.9632 0.00884342 21.0802V41.6609C0.0165034 42.7153 0.454082 43.7222 1.22487 44.4644C1.99566 45.2056 3.03742 45.6203 4.12226 45.6174H8.46739H8.71538H12.1595C10.3364 43.6672 9.18743 41.1 9.06296 38.2691C9.06296 36.9186 9.06296 35.6507 9.06296 33.9633C9.06296 33.2307 9.02657 32.293 9.03615 31.3345L9.06296 25.9231C9.06296 25.5948 9.06296 25.2778 9.06296 24.9542C9.06296 24.3753 9.06296 23.7907 9.06296 23.1861C9.12136 22.1479 9.52734 21.1562 10.2177 20.3628C10.7347 19.7933 11.2958 19.2619 11.8943 18.7741L14.3675 16.6065L19.6404 12.092L20.0694 11.6915C16.9097 8.84817 12.7905 8.04434 10.0846 9.58652Z" fill="white"/>
<path d="M27.5768 34.7039V34.5056C24.5731 31.6642 20.8877 30.2027 18.0774 30.4893V34.7039H18.0822V35.616C18.0822 35.9842 18.0822 36.2983 18.0822 36.5973V36.7102C18.0822 37.6175 17.5125 37.7893 16.8748 37.7893H11.5195C11.5291 41.1166 13.3445 44.0234 16.0399 45.6159H23.5017C23.9144 45.6074 24.3223 45.5343 24.7081 45.4005C25.545 45.1423 26.2746 44.6451 26.7926 43.9807C27.3106 43.3164 27.5921 42.5173 27.5969 41.6964V41.5199V38.6481C27.5969 38.2514 27.5969 37.8244 27.5969 37.4172C27.5969 36.4853 27.5969 36.9123 27.5969 35.9946L27.5749 34.7039H27.5768Z" fill="white"/>
</svg>
